<mxfile host="app.diagrams.net" modified="2024-05-19T02:23:40.648Z" agent="Mozilla/5.0 (Macintosh; Intel Mac OS X 10_15_7) AppleWebKit/605.1.15 (KHTML, like Gecko) Version/17.2 Safari/605.1.15" version="24.4.4" etag="JO0oAyEkBVjRu5gp9j0O" type="github">
  <diagram name="Page-1" id="0n0JqVRdd1b3wqPyL92Z">
    <mxGraphModel>
      <root>
        <mxCell id="0" />
        <mxCell id="1" parent="0" />
      </root>
    </mxGraphModel>
  </diagram>
</mxfile>
